<?xml version="1.0" encoding="UTF-8" standalone="no"?>
<!DOCTYPE svg PUBLIC "-//W3C//DTD SVG 1.0//EN" "http://www.w3.org/TR/2001/PR-SVG-20010719/DTD/svg10.dtd">
<svg width="23cm" height="9cm" viewBox="11 15 442 178" xmlns="http://www.w3.org/2000/svg" xmlns:xlink="http://www.w3.org/1999/xlink">
  <text style="fill: #000000;text-anchor:start;font-size:12.8;font-family:sanserif;font-style:normal;font-weight:normal" x="275.794" y="155.633">
    <tspan x="275.794" y="155.633"></tspan>
  </text>
  <text style="fill: #000000;text-anchor:start;font-size:12.8;font-family:sanserif;font-style:normal;font-weight:normal" x="275.794" y="155.633">
    <tspan x="275.794" y="155.633"></tspan>
  </text>
  <text style="fill: #000000;text-anchor:start;font-size:12.8;font-family:sanserif;font-style:normal;font-weight:normal" x="31.24" y="53.5396">
    <tspan x="31.24" y="53.5396"></tspan>
  </text>
  <text style="fill: #000000;text-anchor:start;font-size:12.8;font-family:sanserif;font-style:normal;font-weight:normal" x="31.24" y="53.5396">
    <tspan x="31.24" y="53.5396"></tspan>
  </text>
  <text style="fill: #000000;text-anchor:start;font-size:12.8;font-family:sanserif;font-style:normal;font-weight:normal" x="206.286" y="63.076">
    <tspan x="206.286" y="63.076"></tspan>
  </text>
  <text style="fill: #000000;text-anchor:start;font-size:12.8;font-family:sanserif;font-style:normal;font-weight:normal" x="92.0784" y="20.3656">
    <tspan x="92.0784" y="20.3656"></tspan>
  </text>
  <text style="fill: #000000;text-anchor:start;font-size:12.8;font-family:sanserif;font-style:normal;font-weight:normal" x="92.0784" y="20.3656">
    <tspan x="92.0784" y="20.3656"></tspan>
  </text>
  <g>
    <g>
      <rect style="fill: #ffffff" x="77.0524" y="16.2988" width="30.052" height="8.13365" rx="2" ry="2"/>
      <rect style="fill: none; fill-opacity:0; stroke-width: 1; stroke-linejoin: round; stroke: #ff0000" x="77.0524" y="16.2988" width="30.052" height="8.13365" rx="2" ry="2"/>
    </g>
    <text style="fill: #000000;text-anchor:start;font-size:4.17689;font-family:sanserif;font-style:normal;font-weight:normal" x="78.4446" y="21.9508">
      <tspan x="78.4446" y="21.9508">sda</tspan>
    </text>
  </g>
  <g>
    <g>
      <rect style="fill: #ffffff" x="16.2139" y="49.554" width="30.052" height="7.97131" rx="2" ry="2"/>
      <rect style="fill: none; fill-opacity:0; stroke-width: 1; stroke-linejoin: round; stroke: #ffa500" x="16.2139" y="49.554" width="30.052" height="7.97131" rx="2" ry="2"/>
    </g>
    <text style="fill: #000000;text-anchor:start;font-size:4.17689;font-family:sanserif;font-style:normal;font-weight:normal" x="17.6061" y="55.03">
      <tspan x="17.6061" y="55.03">sda1</tspan>
    </text>
  </g>
  <g>
    <g>
      <rect style="fill: #ffffff" x="96.3802" y="49.554" width="30.052" height="7.97131" rx="2" ry="2"/>
      <rect style="fill: none; fill-opacity:0; stroke-width: 1; stroke-linejoin: round; stroke: #ffa500" x="96.3802" y="49.554" width="30.052" height="7.97131" rx="2" ry="2"/>
    </g>
    <text style="fill: #000000;text-anchor:start;font-size:4.17689;font-family:sanserif;font-style:normal;font-weight:normal" x="97.7722" y="55.03">
      <tspan x="97.7722" y="55.03">sda2</tspan>
    </text>
  </g>
  <g>
    <g>
      <rect style="fill: #ffffff" x="135.389" y="84.556" width="30.052" height="7.97131" rx="2" ry="2"/>
      <rect style="fill: none; fill-opacity:0; stroke-width: 1; stroke-linejoin: round; stroke: #ffa500" x="135.389" y="84.556" width="30.052" height="7.97131" rx="2" ry="2"/>
    </g>
    <text style="fill: #000000;text-anchor:start;font-size:4.17689;font-family:sanserif;font-style:normal;font-weight:normal" x="136.781" y="90.032">
      <tspan x="136.781" y="90.032">sda7</tspan>
    </text>
  </g>
  <g>
    <g>
      <rect style="fill: #ffffff" x="55.8398" y="84.556" width="30.052" height="7.97131" rx="2" ry="2"/>
      <rect style="fill: none; fill-opacity:0; stroke-width: 1; stroke-linejoin: round; stroke: #ffa500" x="55.8398" y="84.556" width="30.052" height="7.97131" rx="2" ry="2"/>
    </g>
    <text style="fill: #000000;text-anchor:start;font-size:4.17689;font-family:sanserif;font-style:normal;font-weight:normal" x="57.232" y="90.032">
      <tspan x="57.232" y="90.032">sda5</tspan>
    </text>
  </g>
  <g>
    <g>
      <rect style="fill: #ffffff" x="95.4378" y="84.556" width="30.052" height="7.97131" rx="2" ry="2"/>
      <rect style="fill: none; fill-opacity:0; stroke-width: 1; stroke-linejoin: round; stroke: #ffa500" x="95.4378" y="84.556" width="30.052" height="7.97131" rx="2" ry="2"/>
    </g>
    <text style="fill: #000000;text-anchor:start;font-size:4.17689;font-family:sanserif;font-style:normal;font-weight:normal" x="96.83" y="90.032">
      <tspan x="96.83" y="90.032">sda6</tspan>
    </text>
  </g>
  <g>
    <g>
      <rect style="fill: #ffffff" x="175.341" y="84.556" width="30.052" height="7.97131" rx="2" ry="2"/>
      <rect style="fill: none; fill-opacity:0; stroke-width: 1; stroke-linejoin: round; stroke: #ffa500" x="175.341" y="84.556" width="30.052" height="7.97131" rx="2" ry="2"/>
    </g>
    <text style="fill: #000000;text-anchor:start;font-size:4.17689;font-family:sanserif;font-style:normal;font-weight:normal" x="176.733" y="90.032">
      <tspan x="176.733" y="90.032">sda8</tspan>
    </text>
  </g>
  <g>
    <line style="fill: none; fill-opacity:0; stroke-width: 1; stroke-linejoin: round; stroke: #000000" x1="92.0784" y1="24.4324" x2="34.3531" y2="48.2685"/>
    <polygon style="fill: #000000" points="32.2734,49.1273 34.4738,46.5958 34.3531,48.2685 35.6188,49.3687 "/>
    <polygon style="fill: none; fill-opacity:0; stroke-width: 1; stroke: #000000" points="32.2734,49.1273 34.4738,46.5958 34.3531,48.2685 35.6188,49.3687 "/>
  </g>
  <g>
    <line style="fill: none; fill-opacity:0; stroke-width: 1; stroke: #000000" x1="92.0784" y1="24.4324" x2="109.352" y2="46.8846"/>
    <polygon style="fill: #000000" points="110.724,48.6679 107.706,47.2048 109.352,46.8846 110.084,45.3755 "/>
    <polygon style="fill: none; fill-opacity:0; stroke-width: 1; stroke: #000000" points="110.724,48.6679 107.706,47.2048 109.352,46.8846 110.084,45.3755 "/>
  </g>
  <g>
    <line style="fill: none; fill-opacity:0; stroke-width: 1; stroke: #000000" x1="92.0784" y1="24.4324" x2="73.0936" y2="46.9777"/>
    <polygon style="fill: #000000" points="71.6443,48.6988 72.4293,45.4378 73.0936,46.9777 74.7241,47.3702 "/>
    <polygon style="fill: none; fill-opacity:0; stroke-width: 1; stroke: #000000" points="71.6443,48.6988 72.4293,45.4378 73.0936,46.9777 74.7241,47.3702 "/>
  </g>
  <g>
    <line style="fill: none; fill-opacity:0; stroke-width: 1; stroke: #000000" x1="111.406" y1="57.5254" x2="73.6681" y2="82.6876"/>
    <polygon style="fill: #000000" points="71.796,83.9358 73.4599,81.0235 73.6681,82.6876 75.1242,83.5195 "/>
    <polygon style="fill: none; fill-opacity:0; stroke-width: 1; stroke: #000000" points="71.796,83.9358 73.4599,81.0235 73.6681,82.6876 75.1242,83.5195 "/>
  </g>
  <g>
    <line style="fill: none; fill-opacity:0; stroke-width: 1; stroke: #000000" x1="111.406" y1="57.5254" x2="110.581" y2="81.19"/>
    <polygon style="fill: #000000" points="110.503,83.4386 109.108,80.3882 110.581,81.19 112.106,80.4927 "/>
    <polygon style="fill: none; fill-opacity:0; stroke-width: 1; stroke: #000000" points="110.503,83.4386 109.108,80.3882 110.581,81.19 112.106,80.4927 "/>
  </g>
  <g>
    <line style="fill: none; fill-opacity:0; stroke-width: 1; stroke: #000000" x1="111.406" y1="57.5254" x2="147.647" y2="82.6377"/>
    <polygon style="fill: #000000" points="149.496,83.9192 146.176,83.4435 147.647,82.6377 147.885,80.9776 "/>
    <polygon style="fill: none; fill-opacity:0; stroke-width: 1; stroke: #000000" points="149.496,83.9192 146.176,83.4435 147.647,82.6377 147.885,80.9776 "/>
  </g>
  <g>
    <line style="fill: none; fill-opacity:0; stroke-width: 1; stroke: #000000" x1="92.0784" y1="24.4324" x2="148.449" y2="47.9958"/>
    <polygon style="fill: #000000" points="150.524,48.8636 147.178,49.0905 148.449,47.9958 148.335,46.3226 "/>
    <polygon style="fill: none; fill-opacity:0; stroke-width: 1; stroke: #000000" points="150.524,48.8636 147.178,49.0905 148.449,47.9958 148.335,46.3226 "/>
  </g>
  <g>
    <line style="fill: none; fill-opacity:0; stroke-width: 1; stroke: #000000" x1="111.406" y1="57.5254" x2="187.18" y2="83.4652"/>
    <polygon style="fill: #000000" points="189.309,84.1939 185.985,84.6414 187.18,83.4652 186.957,81.8031 "/>
    <polygon style="fill: none; fill-opacity:0; stroke-width: 1; stroke: #000000" points="189.309,84.1939 185.985,84.6414 187.18,83.4652 186.957,81.8031 "/>
  </g>
  <text style="fill: #000000;text-anchor:start;font-size:12.8;font-family:sanserif;font-style:normal;font-weight:normal" x="195.229" y="155.954">
    <tspan x="195.229" y="155.954"></tspan>
  </text>
  <text style="fill: #000000;text-anchor:start;font-size:12.8;font-family:sanserif;font-style:normal;font-weight:normal" x="195.229" y="155.954">
    <tspan x="195.229" y="155.954"></tspan>
  </text>
  <text style="fill: #000000;text-anchor:start;font-size:12.8;font-family:sanserif;font-style:normal;font-weight:normal" x="47.479" y="33.704">
    <tspan x="47.479" y="33.704"></tspan>
  </text>
  <text style="fill: #000000;text-anchor:start;font-size:12.8;font-family:sanserif;font-style:normal;font-weight:normal" x="47.479" y="33.704">
    <tspan x="47.479" y="33.704"></tspan>
  </text>
  <text style="fill: #000000;text-anchor:start;font-size:12.8;font-family:sanserif;font-style:normal;font-weight:normal" x="115.229" y="155.954">
    <tspan x="115.229" y="155.954"></tspan>
  </text>
  <text style="fill: #000000;text-anchor:start;font-size:12.8;font-family:sanserif;font-style:normal;font-weight:normal" x="115.229" y="155.954">
    <tspan x="115.229" y="155.954"></tspan>
  </text>
  <g>
    <rect style="fill: #ffffff" x="100.203" y="152.094" width="30.052" height="7.72131" rx="2" ry="2"/>
    <rect style="fill: none; fill-opacity:0; stroke-width: 1; stroke-linejoin: round; stroke: #ff53c8" x="100.203" y="152.094" width="30.052" height="7.72131" rx="2" ry="2"/>
  </g>
  <text style="fill: #000000;text-anchor:start;font-size:4.17689;font-family:sanserif;font-style:normal;font-weight:normal" x="102.515" y="157.503">
    <tspan x="102.515" y="157.503">alpha</tspan>
  </text>
  <g>
    <rect style="fill: #ffffff" x="139.703" y="152.344" width="30.052" height="7.72131" rx="2" ry="2"/>
    <rect style="fill: none; fill-opacity:0; stroke-width: 1; stroke-linejoin: round; stroke: #ff53c8" x="139.703" y="152.344" width="30.052" height="7.72131" rx="2" ry="2"/>
  </g>
  <text style="fill: #000000;text-anchor:start;font-size:4.17689;font-family:sanserif;font-style:normal;font-weight:normal" x="142.015" y="157.753">
    <tspan x="142.015" y="157.753">beta</tspan>
  </text>
  <g>
    <rect style="fill: #ffffff" x="260.768" y="151.772" width="30.052" height="7.72131" rx="2" ry="2"/>
    <rect style="fill: none; fill-opacity:0; stroke-width: 1; stroke-linejoin: round; stroke: #ff53c8" x="260.768" y="151.772" width="30.052" height="7.72131" rx="2" ry="2"/>
  </g>
  <text style="fill: #000000;text-anchor:start;font-size:4.17689;font-family:sanserif;font-style:normal;font-weight:normal" x="263.08" y="157.182">
    <tspan x="263.08" y="157.182">epsilon</tspan>
  </text>
  <g>
    <rect style="fill: #ffffff" x="220.704" y="151.594" width="30.052" height="7.72131" rx="2" ry="2"/>
    <rect style="fill: none; fill-opacity:0; stroke-width: 1; stroke-linejoin: round; stroke: #ff53c8" x="220.704" y="151.594" width="30.052" height="7.72131" rx="2" ry="2"/>
  </g>
  <text style="fill: #000000;text-anchor:start;font-size:4.17689;font-family:sanserif;font-style:normal;font-weight:normal" x="223.016" y="157.003">
    <tspan x="223.016" y="157.003">delta</tspan>
  </text>
  <g>
    <rect style="fill: #ffffff" x="180.203" y="152.094" width="30.052" height="7.72131" rx="2" ry="2"/>
    <rect style="fill: none; fill-opacity:0; stroke-width: 1; stroke-linejoin: round; stroke: #ff53c8" x="180.203" y="152.094" width="30.052" height="7.72131" rx="2" ry="2"/>
  </g>
  <text style="fill: #000000;text-anchor:start;font-size:4.17689;font-family:sanserif;font-style:normal;font-weight:normal" x="182.515" y="157.503">
    <tspan x="182.515" y="157.503">gamma</tspan>
  </text>
  <text style="fill: #000000;text-anchor:start;font-size:12.8;font-family:sanserif;font-style:normal;font-weight:normal" x="189.88" y="119.995">
    <tspan x="189.88" y="119.995"></tspan>
  </text>
  <text style="fill: #000000;text-anchor:start;font-size:12.8;font-family:sanserif;font-style:normal;font-weight:normal" x="189.88" y="119.995">
    <tspan x="189.88" y="119.995"></tspan>
  </text>
  <g>
    <rect style="fill: #ffffff" x="174.854" y="115.928" width="30.052" height="8.13365" rx="2" ry="2"/>
    <rect style="fill: none; fill-opacity:0; stroke-width: 1; stroke-linejoin: round; stroke: #ff53c8" x="174.854" y="115.928" width="30.052" height="8.13365" rx="2" ry="2"/>
  </g>
  <text style="fill: #000000;text-anchor:start;font-size:4.17689;font-family:sanserif;font-style:normal;font-weight:normal" x="177.073" y="120.981">
    <tspan x="177.073" y="120.981">test</tspan>
  </text>
  <g>
    <line style="fill: none; fill-opacity:0; stroke-width: 1; stroke-linejoin: round; stroke: #000000" x1="189.88" y1="124.062" x2="157.353" y2="150.232"/>
    <polygon style="fill: #000000" points="155.6,151.643 156.997,148.594 157.353,150.232 158.878,150.931 "/>
    <polygon style="fill: none; fill-opacity:0; stroke-width: 1; stroke: #000000" points="155.6,151.643 156.997,148.594 157.353,150.232 158.878,150.931 "/>
  </g>
  <g>
    <line style="fill: none; fill-opacity:0; stroke-width: 1; stroke: #000000" x1="189.88" y1="124.062" x2="118.382" y2="150.91"/>
    <polygon style="fill: #000000" points="116.276,151.701 118.557,149.242 118.382,150.91 119.612,152.05 "/>
    <polygon style="fill: none; fill-opacity:0; stroke-width: 1; stroke: #000000" points="116.276,151.701 118.557,149.242 118.382,150.91 119.612,152.05 "/>
  </g>
  <g>
    <line style="fill: none; fill-opacity:0; stroke-width: 1; stroke: #000000" x1="190.367" y1="92.5274" x2="189.95" y2="112.561"/>
    <polygon style="fill: #000000" points="189.903,114.81 188.466,111.78 189.95,112.561 191.465,111.842 "/>
    <polygon style="fill: none; fill-opacity:0; stroke-width: 1; stroke: #000000" points="189.903,114.81 188.466,111.78 189.95,112.561 191.465,111.842 "/>
  </g>
  <g>
    <line style="fill: none; fill-opacity:0; stroke-width: 1; stroke: #000000" x1="189.88" y1="124.062" x2="194.598" y2="148.785"/>
    <polygon style="fill: #000000" points="195.019,150.996 192.984,148.33 194.598,148.785 195.931,147.768 "/>
    <polygon style="fill: none; fill-opacity:0; stroke-width: 1; stroke: #000000" points="195.019,150.996 192.984,148.33 194.598,148.785 195.931,147.768 "/>
  </g>
  <g>
    <line style="fill: none; fill-opacity:0; stroke-width: 1; stroke: #000000" x1="189.88" y1="124.062" x2="232.843" y2="149.86"/>
    <polygon style="fill: #000000" points="234.771,151.018 231.427,150.76 232.843,149.86 232.972,148.188 "/>
    <polygon style="fill: none; fill-opacity:0; stroke-width: 1; stroke: #000000" points="234.771,151.018 231.427,150.76 232.843,149.86 232.972,148.188 "/>
  </g>
  <g>
    <line style="fill: none; fill-opacity:0; stroke-width: 1; stroke: #000000" x1="189.88" y1="124.062" x2="272.589" y2="150.738"/>
    <polygon style="fill: #000000" points="274.73,151.429 271.414,151.936 272.589,150.738 272.335,149.081 "/>
    <polygon style="fill: none; fill-opacity:0; stroke-width: 1; stroke: #000000" points="274.73,151.429 271.414,151.936 272.589,150.738 272.335,149.081 "/>
  </g>
  <g>
    <g>
      <rect style="fill: #ffffff" x="55.8982" y="49.554" width="30.052" height="7.97131" rx="2" ry="2"/>
      <rect style="fill: none; fill-opacity:0; stroke-width: 1; stroke-linejoin: round; stroke: #000000" x="55.8982" y="49.554" width="30.052" height="7.97131" rx="2" ry="2"/>
    </g>
    <text style="fill: #000000;text-anchor:start;font-size:4.17689;font-family:sanserif;font-style:normal;font-weight:normal" x="57.2904" y="55.03">
      <tspan x="57.2904" y="55.03">EMPTY</tspan>
    </text>
  </g>
  <g>
    <g>
      <rect style="fill: #ffffff" x="136.53" y="49.2948" width="30.052" height="7.97131" rx="2" ry="2"/>
      <rect style="fill: none; fill-opacity:0; stroke-width: 1; stroke-linejoin: round; stroke: #000000" x="136.53" y="49.2948" width="30.052" height="7.97131" rx="2" ry="2"/>
    </g>
    <text style="fill: #000000;text-anchor:start;font-size:4.17689;font-family:sanserif;font-style:normal;font-weight:normal" x="137.922" y="54.7708">
      <tspan x="137.922" y="54.7708">EMPTY</tspan>
    </text>
  </g>
  <text style="fill: #000000;text-anchor:start;font-size:12.8;font-family:sanserif;font-style:normal;font-weight:normal" x="437.794" y="55.7586">
    <tspan x="437.794" y="55.7586"></tspan>
  </text>
  <text style="fill: #000000;text-anchor:start;font-size:12.8;font-family:sanserif;font-style:normal;font-weight:normal" x="437.794" y="55.7586">
    <tspan x="437.794" y="55.7586"></tspan>
  </text>
  <text style="fill: #000000;text-anchor:start;font-size:12.8;font-family:sanserif;font-style:normal;font-weight:normal" x="357.23" y="56.0806">
    <tspan x="357.23" y="56.0806"></tspan>
  </text>
  <text style="fill: #000000;text-anchor:start;font-size:12.8;font-family:sanserif;font-style:normal;font-weight:normal" x="357.23" y="56.0806">
    <tspan x="357.23" y="56.0806"></tspan>
  </text>
  <text style="fill: #000000;text-anchor:start;font-size:12.8;font-family:sanserif;font-style:normal;font-weight:normal" x="277.23" y="56.0806">
    <tspan x="277.23" y="56.0806"></tspan>
  </text>
  <text style="fill: #000000;text-anchor:start;font-size:12.8;font-family:sanserif;font-style:normal;font-weight:normal" x="277.23" y="56.0806">
    <tspan x="277.23" y="56.0806"></tspan>
  </text>
  <g>
    <g>
      <rect style="fill: #ffffff" x="262.204" y="52.22" width="30.052" height="7.72131" rx="2" ry="2"/>
      <rect style="fill: none; fill-opacity:0; stroke-width: 1; stroke-linejoin: round; stroke: #4ec3b7" x="262.204" y="52.22" width="30.052" height="7.72131" rx="2" ry="2"/>
    </g>
    <text style="fill: #000000;text-anchor:start;font-size:4.17689;font-family:sanserif;font-style:normal;font-weight:normal" x="263.596" y="57.696">
      <tspan x="263.596" y="57.696">alpha</tspan>
    </text>
  </g>
  <g>
    <g>
      <rect style="fill: #ffffff" x="301.704" y="52.47" width="30.052" height="7.72131" rx="2" ry="2"/>
      <rect style="fill: none; fill-opacity:0; stroke-width: 1; stroke-linejoin: round; stroke: #4ec3b7" x="301.704" y="52.47" width="30.052" height="7.72131" rx="2" ry="2"/>
    </g>
    <text style="fill: #000000;text-anchor:start;font-size:4.17689;font-family:sanserif;font-style:normal;font-weight:normal" x="303.096" y="57.946">
      <tspan x="303.096" y="57.946">beta</tspan>
    </text>
  </g>
  <g>
    <g>
      <rect style="fill: #ffffff" x="422.768" y="51.898" width="30.052" height="7.72131" rx="2" ry="2"/>
      <rect style="fill: none; fill-opacity:0; stroke-width: 1; stroke-linejoin: round; stroke: #4ec3b7" x="422.768" y="51.898" width="30.052" height="7.72131" rx="2" ry="2"/>
    </g>
    <text style="fill: #000000;text-anchor:start;font-size:4.17689;font-family:sanserif;font-style:normal;font-weight:normal" x="424.16" y="57.374">
      <tspan x="424.16" y="57.374">epsilon</tspan>
    </text>
  </g>
  <g>
    <g>
      <rect style="fill: #ffffff" x="382.704" y="51.72" width="30.052" height="7.72131" rx="2" ry="2"/>
      <rect style="fill: none; fill-opacity:0; stroke-width: 1; stroke-linejoin: round; stroke: #4ec3b7" x="382.704" y="51.72" width="30.052" height="7.72131" rx="2" ry="2"/>
    </g>
    <text style="fill: #000000;text-anchor:start;font-size:4.17689;font-family:sanserif;font-style:normal;font-weight:normal" x="384.096" y="57.196">
      <tspan x="384.096" y="57.196">delta</tspan>
    </text>
  </g>
  <g>
    <g>
      <rect style="fill: #ffffff" x="342.204" y="52.22" width="30.052" height="7.72131" rx="2" ry="2"/>
      <rect style="fill: none; fill-opacity:0; stroke-width: 1; stroke-linejoin: round; stroke: #4ec3b7" x="342.204" y="52.22" width="30.052" height="7.72131" rx="2" ry="2"/>
    </g>
    <text style="fill: #000000;text-anchor:start;font-size:4.17689;font-family:sanserif;font-style:normal;font-weight:normal" x="343.596" y="57.696">
      <tspan x="343.596" y="57.696">gamma</tspan>
    </text>
  </g>
  <g>
    <g>
      <rect style="fill: #ffffff" x="336.854" y="16.054" width="30.052" height="8.13365" rx="2" ry="2"/>
      <rect style="fill: none; fill-opacity:0; stroke-width: 1; stroke-linejoin: round; stroke: #a1119b" x="336.854" y="16.054" width="30.052" height="8.13365" rx="2" ry="2"/>
    </g>
    <text style="fill: #000000;text-anchor:start;font-size:4.17689;font-family:sanserif;font-style:normal;font-weight:normal" x="338.158" y="21.456">
      <tspan x="338.158" y="21.456">test</tspan>
    </text>
  </g>
  <g>
    <line style="fill: none; fill-opacity:0; stroke-width: 1; stroke-linejoin: round; stroke: #000000" x1="351.88" y1="24.1876" x2="319.354" y2="50.3586"/>
    <polygon style="fill: #000000" points="317.601,51.7691 318.998,48.7198 319.354,50.3586 320.879,51.0571 "/>
    <polygon style="fill: none; fill-opacity:0; stroke-width: 1; stroke: #000000" points="317.601,51.7691 318.998,48.7198 319.354,50.3586 320.879,51.0571 "/>
  </g>
  <g>
    <line style="fill: none; fill-opacity:0; stroke-width: 1; stroke: #000000" x1="351.88" y1="24.1876" x2="280.383" y2="51.036"/>
    <polygon style="fill: #000000" points="278.277,51.827 280.558,49.3681 280.383,51.036 281.613,52.1766 "/>
    <polygon style="fill: none; fill-opacity:0; stroke-width: 1; stroke: #000000" points="278.277,51.827 280.558,49.3681 280.383,51.036 281.613,52.1766 "/>
  </g>
  <g>
    <line style="fill: none; fill-opacity:0; stroke-width: 1; stroke: #000000" x1="351.88" y1="24.1876" x2="356.599" y2="48.9117"/>
    <polygon style="fill: #000000" points="357.02,51.1218 354.985,48.4562 356.599,48.9117 357.931,47.8938 "/>
    <polygon style="fill: none; fill-opacity:0; stroke-width: 1; stroke: #000000" points="357.02,51.1218 354.985,48.4562 356.599,48.9117 357.931,47.8938 "/>
  </g>
  <g>
    <line style="fill: none; fill-opacity:0; stroke-width: 1; stroke: #000000" x1="351.88" y1="24.1876" x2="394.843" y2="49.9861"/>
    <polygon style="fill: #000000" points="396.772,51.1444 393.427,50.886 394.843,49.9861 394.972,48.3141 "/>
    <polygon style="fill: none; fill-opacity:0; stroke-width: 1; stroke: #000000" points="396.772,51.1444 393.427,50.886 394.843,49.9861 394.972,48.3141 "/>
  </g>
  <g>
    <line style="fill: none; fill-opacity:0; stroke-width: 1; stroke: #000000" x1="351.88" y1="24.1876" x2="434.589" y2="50.8641"/>
    <polygon style="fill: #000000" points="436.73,51.5548 433.414,52.0615 434.589,50.8641 434.335,49.2063 "/>
    <polygon style="fill: none; fill-opacity:0; stroke-width: 1; stroke: #000000" points="436.73,51.5548 433.414,52.0615 434.589,50.8641 434.335,49.2063 "/>
  </g>
  <g>
    <rect style="fill: #ffffff" x="261.492" y="81.4602" width="30.052" height="8.14631" rx="2" ry="2"/>
    <rect style="fill: none; fill-opacity:0; stroke-width: 1; stroke-linejoin: round; stroke: #00ff00" x="261.492" y="81.4602" width="30.052" height="8.14631" rx="2" ry="2"/>
  </g>
  <text style="fill: #000000;text-anchor:start;font-size:4.17689;font-family:sanserif;font-style:normal;font-weight:normal" x="263.06" y="86.936">
    <tspan x="263.06" y="86.936">ext4</tspan>
  </text>
  <g>
    <rect style="fill: #ffffff" x="343.924" y="81.4602" width="30.052" height="8.14631" rx="2" ry="2"/>
    <rect style="fill: none; fill-opacity:0; stroke-width: 1; stroke-linejoin: round; stroke: #00ff00" x="343.924" y="81.4602" width="30.052" height="8.14631" rx="2" ry="2"/>
  </g>
  <text style="fill: #000000;text-anchor:start;font-size:4.17689;font-family:sanserif;font-style:normal;font-weight:normal" x="345.492" y="86.936">
    <tspan x="345.492" y="86.936">btrfs</tspan>
  </text>
  <g>
    <rect style="fill: #ffffff" x="422.904" y="81.4602" width="30.052" height="8.14631" rx="2" ry="2"/>
    <rect style="fill: none; fill-opacity:0; stroke-width: 1; stroke-linejoin: round; stroke: #00ff00" x="422.904" y="81.4602" width="30.052" height="8.14631" rx="2" ry="2"/>
  </g>
  <text style="fill: #000000;text-anchor:start;font-size:4.17689;font-family:sanserif;font-style:normal;font-weight:normal" x="424.472" y="86.936">
    <tspan x="424.472" y="86.936">fat32</tspan>
  </text>
  <g>
    <rect style="fill: #ffffff" x="302.46" y="81.4602" width="30.052" height="8.14631" rx="2" ry="2"/>
    <rect style="fill: none; fill-opacity:0; stroke-width: 1; stroke-linejoin: round; stroke: #00ff00" x="302.46" y="81.4602" width="30.052" height="8.14631" rx="2" ry="2"/>
  </g>
  <text style="fill: #000000;text-anchor:start;font-size:4.17689;font-family:sanserif;font-style:normal;font-weight:normal" x="304.03" y="86.936">
    <tspan x="304.03" y="86.936">ext4</tspan>
  </text>
  <g>
    <rect style="fill: #ffffff" x="383.414" y="81.4602" width="30.052" height="8.14631" rx="2" ry="2"/>
    <rect style="fill: none; fill-opacity:0; stroke-width: 1; stroke-linejoin: round; stroke: #00ff00" x="383.414" y="81.4602" width="30.052" height="8.14631" rx="2" ry="2"/>
  </g>
  <text style="fill: #000000;text-anchor:start;font-size:4.17689;font-family:sanserif;font-style:normal;font-weight:normal" x="384.982" y="86.936">
    <tspan x="384.982" y="86.936">ntfs</tspan>
  </text>
  <g>
    <line style="fill: none; fill-opacity:0; stroke-width: 1; stroke-linejoin: round; stroke: #000000" x1="437.814" y1="60.0911" x2="437.894" y2="77.593"/>
    <polygon style="fill: #000000" points="437.904,79.843 436.39,76.8499 437.894,77.593 439.39,76.8362 "/>
    <polygon style="fill: none; fill-opacity:0; stroke-width: 1; stroke: #000000" points="437.904,79.843 436.39,76.8499 437.894,77.593 439.39,76.8362 "/>
  </g>
  <g>
    <line style="fill: none; fill-opacity:0; stroke-width: 1; stroke: #000000" x1="357.479" y1="60.3375" x2="358.487" y2="77.6122"/>
    <polygon style="fill: #000000" points="358.619,79.8584 356.946,76.9509 358.487,77.6122 359.941,76.776 "/>
    <polygon style="fill: none; fill-opacity:0; stroke-width: 1; stroke: #000000" points="358.619,79.8584 356.946,76.9509 358.487,77.6122 359.941,76.776 "/>
  </g>
  <g>
    <line style="fill: none; fill-opacity:0; stroke-width: 1; stroke: #000000" x1="397.834" y1="59.9463" x2="398.252" y2="77.5885"/>
    <polygon style="fill: #000000" points="398.305,79.8379 396.734,76.8743 398.252,77.5885 399.734,76.8032 "/>
    <polygon style="fill: none; fill-opacity:0; stroke-width: 1; stroke: #000000" points="398.305,79.8379 396.734,76.8743 398.252,77.5885 399.734,76.8032 "/>
  </g>
  <g>
    <line style="fill: none; fill-opacity:0; stroke-width: 1; stroke: #000000" x1="277.23" y1="59.9414" x2="276.739" y2="77.6056"/>
    <polygon style="fill: #000000" points="276.676,79.8547 275.26,76.8141 276.739,77.6056 278.259,76.8976 "/>
    <polygon style="fill: none; fill-opacity:0; stroke-width: 1; stroke: #000000" points="276.676,79.8547 275.26,76.8141 276.739,77.6056 278.259,76.8976 "/>
  </g>
  <g>
    <line style="fill: none; fill-opacity:0; stroke-width: 1; stroke: #000000" x1="316.843" y1="60.6797" x2="317.28" y2="77.5893"/>
    <polygon style="fill: #000000" points="317.339,79.8385 315.761,76.8783 317.28,77.5893 318.76,76.8007 "/>
    <polygon style="fill: none; fill-opacity:0; stroke-width: 1; stroke: #000000" points="317.339,79.8385 315.761,76.8783 317.28,77.5893 318.76,76.8007 "/>
  </g>
  <g>
    <rect style="fill: #ffffff" x="95.6182" y="184.174" width="30.052" height="8.14631" rx="2" ry="2"/>
    <rect style="fill: none; fill-opacity:0; stroke-width: 1; stroke-linejoin: round; stroke: #00ff00" x="95.6182" y="184.174" width="30.052" height="8.14631" rx="2" ry="2"/>
  </g>
  <text style="fill: #000000;text-anchor:start;font-size:4.17689;font-family:sanserif;font-style:normal;font-weight:normal" x="97.1862" y="189.65">
    <tspan x="97.1862" y="189.65">ext4</tspan>
  </text>
  <g>
    <rect style="fill: #ffffff" x="178.05" y="184.174" width="30.052" height="8.14631" rx="2" ry="2"/>
    <rect style="fill: none; fill-opacity:0; stroke-width: 1; stroke-linejoin: round; stroke: #00ff00" x="178.05" y="184.174" width="30.052" height="8.14631" rx="2" ry="2"/>
  </g>
  <text style="fill: #000000;text-anchor:start;font-size:4.17689;font-family:sanserif;font-style:normal;font-weight:normal" x="179.618" y="189.65">
    <tspan x="179.618" y="189.65">btrfs</tspan>
  </text>
  <g>
    <rect style="fill: #ffffff" x="257.03" y="184.174" width="30.052" height="8.14631" rx="2" ry="2"/>
    <rect style="fill: none; fill-opacity:0; stroke-width: 1; stroke-linejoin: round; stroke: #00ff00" x="257.03" y="184.174" width="30.052" height="8.14631" rx="2" ry="2"/>
  </g>
  <text style="fill: #000000;text-anchor:start;font-size:4.17689;font-family:sanserif;font-style:normal;font-weight:normal" x="258.598" y="189.65">
    <tspan x="258.598" y="189.65">fat32</tspan>
  </text>
  <g>
    <rect style="fill: #ffffff" x="136.586" y="184.174" width="30.052" height="8.14631" rx="2" ry="2"/>
    <rect style="fill: none; fill-opacity:0; stroke-width: 1; stroke-linejoin: round; stroke: #00ff00" x="136.586" y="184.174" width="30.052" height="8.14631" rx="2" ry="2"/>
  </g>
  <text style="fill: #000000;text-anchor:start;font-size:4.17689;font-family:sanserif;font-style:normal;font-weight:normal" x="138.156" y="189.65">
    <tspan x="138.156" y="189.65">ext4</tspan>
  </text>
  <g>
    <rect style="fill: #ffffff" x="217.54" y="184.174" width="30.052" height="8.14631" rx="2" ry="2"/>
    <rect style="fill: none; fill-opacity:0; stroke-width: 1; stroke-linejoin: round; stroke: #00ff00" x="217.54" y="184.174" width="30.052" height="8.14631" rx="2" ry="2"/>
  </g>
  <text style="fill: #000000;text-anchor:start;font-size:4.17689;font-family:sanserif;font-style:normal;font-weight:normal" x="219.108" y="189.65">
    <tspan x="219.108" y="189.65">ntfs</tspan>
  </text>
  <g>
    <line style="fill: none; fill-opacity:0; stroke-width: 1; stroke-linejoin: round; stroke-dasharray: 2; stroke: #000000" x1="271.94" y1="162.805" x2="272.044" y2="181.938"/>
    <polyline style="fill: none; fill-opacity:0; stroke-width: 1; stroke: #000000" points="270.534,180.064 272.05,183.056 273.534,180.048 "/>
  </g>
  <g>
    <line style="fill: none; fill-opacity:0; stroke-width: 1; stroke-dasharray: 2; stroke: #000000" x1="191.605" y1="163.051" x2="192.921" y2="181.944"/>
    <polyline style="fill: none; fill-opacity:0; stroke-width: 1; stroke: #000000" points="191.294,180.17 192.999,183.059 194.286,179.962 "/>
  </g>
  <g>
    <line style="fill: none; fill-opacity:0; stroke-width: 1; stroke-dasharray: 2; stroke: #000000" x1="231.96" y1="162.66" x2="232.503" y2="181.939"/>
    <polyline style="fill: none; fill-opacity:0; stroke-width: 1; stroke: #000000" points="230.951,180.1 232.535,183.057 233.949,180.016 "/>
  </g>
  <g>
    <line style="fill: none; fill-opacity:0; stroke-width: 1; stroke-dasharray: 2; stroke: #000000" x1="111.356" y1="162.655" x2="110.718" y2="181.939"/>
    <polyline style="fill: none; fill-opacity:0; stroke-width: 1; stroke: #000000" points="109.281,180.009 110.681,183.057 112.28,180.108 "/>
  </g>
  <g>
    <line style="fill: none; fill-opacity:0; stroke-width: 1; stroke-dasharray: 2; stroke: #000000" x1="150.969" y1="163.394" x2="151.543" y2="181.939"/>
    <polyline style="fill: none; fill-opacity:0; stroke-width: 1; stroke: #000000" points="149.985,180.105 151.578,183.057 152.984,180.012 "/>
  </g>
  <g>
    <rect style="fill: #ffffff" x="12.2733" y="81.8424" width="30.052" height="8.14631" rx="2" ry="2"/>
    <rect style="fill: none; fill-opacity:0; stroke-width: 1; stroke-linejoin: round; stroke: #00ff00" x="12.2733" y="81.8424" width="30.052" height="8.14631" rx="2" ry="2"/>
  </g>
  <text style="fill: #000000;text-anchor:start;font-size:4.17689;font-family:sanserif;font-style:normal;font-weight:normal" x="13.8413" y="87.3182">
    <tspan x="13.8413" y="87.3182">ext4</tspan>
  </text>
  <g>
    <line style="fill: none; fill-opacity:0; stroke-width: 1; stroke-linejoin: round; stroke: #000000" x1="30.6146" y1="58.0311" x2="27.7638" y2="78.5065"/>
    <polygon style="fill: #000000" points="27.4536,80.735 26.3816,77.5569 27.7638,78.5065 29.3529,77.9706 "/>
    <polygon style="fill: none; fill-opacity:0; stroke-width: 1; stroke: #000000" points="27.4536,80.735 26.3816,77.5569 27.7638,78.5065 29.3529,77.9706 "/>
  </g>
  <g>
    <rect style="fill: #ffffff" x="55.0306" y="112.591" width="30.052" height="8.14631" rx="2" ry="2"/>
    <rect style="fill: none; fill-opacity:0; stroke-width: 1; stroke-linejoin: round; stroke: #00ff00" x="55.0306" y="112.591" width="30.052" height="8.14631" rx="2" ry="2"/>
  </g>
  <text style="fill: #000000;text-anchor:start;font-size:4.17689;font-family:sanserif;font-style:normal;font-weight:normal" x="57.3426" y="118.179">
    <tspan x="57.3426" y="118.179">ext4</tspan>
  </text>
  <g>
    <line style="fill: none; fill-opacity:0; stroke-width: 1; stroke-linejoin: round; stroke: #000000" x1="70.7153" y1="93.0157" x2="70.1699" y2="109.225"/>
    <polygon style="fill: #000000" points="70.0942,111.474 68.6959,108.425 70.1699,109.225 71.6942,108.526 "/>
    <polygon style="fill: none; fill-opacity:0; stroke-width: 1; stroke: #000000" points="70.0942,111.474 68.6959,108.425 70.1699,109.225 71.6942,108.526 "/>
  </g>
  <g>
    <rect style="fill: #ffffff" x="95.6182" y="112.591" width="30.052" height="8.14631" rx="2" ry="2"/>
    <rect style="fill: none; fill-opacity:0; stroke-width: 1; stroke-linejoin: round; stroke: #00ff00" x="95.6182" y="112.591" width="30.052" height="8.14631" rx="2" ry="2"/>
  </g>
  <text style="fill: #000000;text-anchor:start;font-size:4.17689;font-family:sanserif;font-style:normal;font-weight:normal" x="97.93" y="118.179">
    <tspan x="97.93" y="118.179">ntfs</tspan>
  </text>
  <g>
    <line style="fill: none; fill-opacity:0; stroke-width: 1; stroke-linejoin: round; stroke: #000000" x1="110.497" y1="93.0157" x2="110.619" y2="109.223"/>
    <polygon style="fill: #000000" points="110.636,111.473 109.113,108.485 110.619,109.223 112.113,108.462 "/>
    <polygon style="fill: none; fill-opacity:0; stroke-width: 1; stroke: #000000" points="110.636,111.473 109.113,108.485 110.619,109.223 112.113,108.462 "/>
  </g>
  <g>
    <rect style="fill: #ffffff" x="134.825" y="112.591" width="30.052" height="8.14631" rx="2" ry="2"/>
    <rect style="fill: none; fill-opacity:0; stroke-width: 1; stroke-linejoin: round; stroke: #00ff00" x="134.825" y="112.591" width="30.052" height="8.14631" rx="2" ry="2"/>
  </g>
  <text style="fill: #000000;text-anchor:start;font-size:4.17689;font-family:sanserif;font-style:normal;font-weight:normal" x="137.137" y="118.179">
    <tspan x="137.137" y="118.179">fat32</tspan>
  </text>
  <g>
    <line style="fill: none; fill-opacity:0; stroke-width: 1; stroke-linejoin: round; stroke: #000000" x1="150.326" y1="92.9908" x2="150.01" y2="108.724"/>
    <polygon style="fill: #000000" points="149.965,110.974 148.525,107.944 150.01,108.724 151.525,108.005 "/>
    <polygon style="fill: none; fill-opacity:0; stroke-width: 1; stroke: #000000" points="149.965,110.974 148.525,107.944 150.01,108.724 151.525,108.005 "/>
  </g>
</svg>
